<svg xmlns="http://www.w3.org/2000/svg" viewBox="0 0 50 50">
  <defs>
    <style>
      .cls-1 {
        fill: #e4e3fe;
      }

      .cls-2 {
        fill: #5d55fb;
      }
    </style>
  </defs>
  <g id="pig" transform="translate(-935 -200)">
    <path id="Path_1" data-name="Path 1" class="cls-1" d="M25,0A25,25,0,1,1,0,25,25,25,0,0,1,25,0Z" transform="translate(935 200)"/>
    <g id="_13_Money_box" data-name="13 Money box" transform="translate(944.69 209)">
      <path id="Fill_278" data-name="Fill 278" class="cls-2" d="M25.973,25.764H22.782a1.315,1.315,0,0,1-1.182-.74l-.832-1.7a17.9,17.9,0,0,1-3.762.4,18.2,18.2,0,0,1-3.464-.338l-.813,1.638a1.338,1.338,0,0,1-1.189.733H8.363a1.323,1.323,0,0,1-1.322-1.321V20.988A42.1,42.1,0,0,1,.469,16.549a1.313,1.313,0,0,1-.469-1V10.519A1.322,1.322,0,0,1,1.321,9.2H4.267A9.711,9.711,0,0,1,5.635,7.355V1.324A1.32,1.32,0,0,1,6.1.313,1.336,1.336,0,0,1,6.964,0a1.37,1.37,0,0,1,.209.016,8.8,8.8,0,0,1,5.819,3.356,18.259,18.259,0,0,1,3.976-.436c7.631,0,13.838,4.664,13.838,10.4a8.18,8.18,0,0,1-.9,3.726,10.31,10.31,0,0,1-2.609,3.216v4.168A1.322,1.322,0,0,1,25.973,25.764ZM21.481,20.47a1.321,1.321,0,0,1,1.189.736l.938,1.915h1.044V19.634a1.308,1.308,0,0,1,.521-1.05,6.7,6.7,0,0,0,2.993-5.252c0-4.276-5.023-7.754-11.2-7.754a15.772,15.772,0,0,0-3.877.482l-.317.092a1.333,1.333,0,0,1-1.48-.587A5.785,5.785,0,0,0,8.276,3.028V7.9a1.3,1.3,0,0,1-.4.945,7.3,7.3,0,0,0-1.6,2.219,1.331,1.331,0,0,1-1.2.779H2.642v3.072A40.524,40.524,0,0,0,8.964,19.02a1.312,1.312,0,0,1,.72,1.176v2.926H10.72l.912-1.823a1.326,1.326,0,0,1,1.5-.7,16.112,16.112,0,0,0,3.894.489,15.1,15.1,0,0,0,4.1-.568A1.327,1.327,0,0,1,21.481,20.47Z" transform="translate(0.31 5.942)"/>
      <path id="Fill_279" data-name="Fill 279" class="cls-2" d="M2.662,1.328A1.331,1.331,0,1,1,1.334,0,1.329,1.329,0,0,1,2.662,1.328" transform="translate(7.926 16.223)"/>
      <path id="Fill_280" data-name="Fill 280" class="cls-2" d="M7.913,2.49a.864.864,0,0,1-.291-.046,11.285,11.285,0,0,0-3.276-.462,11.2,11.2,0,0,0-3.085.41A.992.992,0,0,1,.719.482,13.294,13.294,0,0,1,4.346,0,13.184,13.184,0,0,1,8.2.548.993.993,0,0,1,7.913,2.49" transform="translate(12.848 13.277)"/>
      <path id="Fill_281" data-name="Fill 281" class="cls-2" d="M2.642,5.284A2.642,2.642,0,1,1,5.284,2.642,2.646,2.646,0,0,1,2.642,5.284" transform="translate(14.373 0.991)"/>
      <path id="Fill_282" data-name="Fill 282" class="cls-2" d="M3.633,7.266A3.633,3.633,0,1,1,7.266,3.633,3.637,3.637,0,0,1,3.633,7.266Zm0-5.284A1.651,1.651,0,1,0,5.284,3.633,1.653,1.653,0,0,0,3.633,1.981Z" transform="translate(13.382 0)"/>
    </g>
  </g>
</svg>
